SRRun01_grf
version=1
nRows=24
nColumns=19
inDegrees=no
endheader
time	ground_force_r_vx	ground_force_r_vy	ground_force_r_vz	ground_force_r_px	ground_force_r_py	ground_force_r_pz	ground_force_r_mx	ground_force_r_my	ground_force_r_mz	ground_force_l_vx	ground_force_l_vy	ground_force_l_vz	ground_force_l_px	ground_force_l_py	ground_force_l_pz	ground_force_l_mx	ground_force_l_my	ground_force_l_mz
    142.49700000	    -87.94438192	   1130.78923844	    -99.53428689	      1.15362528	      0.00000000	     -0.27798051	      0.00001903	     15.97515002	      0.00007516	      0.00000000	      0.00000000	      0.00000000	      0.00000000	      0.00000000	      0.00000000	      0.00000000	      0.00000000	      0.00000000
    142.49800000	   -101.28112096	   1179.09346380	    -79.52117549	      1.14937445	      0.00000000	     -0.27850669	      0.00002001	      7.20850431	      0.00007511	      0.00000000	      0.00000000	      0.00000000	      0.00000000	      0.00000000	      0.00000000	      0.00000000	      0.00000000	      0.00000000
    142.49900000	   -119.14220558	   1227.57759624	    -59.07477836	      1.14517384	      0.00000000	     -0.27902579	      0.00002087	     -1.59276742	      0.00007481	      0.00000000	      0.00000000	      0.00000000	      0.00000000	      0.00000000	      0.00000000	      0.00000000	      0.00000000	      0.00000000
    142.50000000	   -140.50066985	   1275.61548641	    -39.05885299	      1.14104112	      0.00000000	     -0.27954980	      0.00002159	     -9.78051606	      0.00007448	      0.00000000	      0.00000000	      0.00000000	      0.00000000	      0.00000000	      0.00000000	      0.00000000	      0.00000000	      0.00000000
    142.50100000	   -164.07251332	   1322.57252908	    -20.28007911	      1.13697066	      0.00000000	     -0.28008878	      0.00002215	    -16.74406587	      0.00007438	      0.00000000	      0.00000000	      0.00000000	      0.00000000	      0.00000000	      0.00000000	      0.00000000	      0.00000000	      0.00000000
    142.50200000	   -188.40837268	   1367.84737779	     -3.43634143	      1.13293300	      0.00000000	     -0.28065083	      0.00002255	    -21.96748886	      0.00007472	      0.00000000	      0.00000000	      0.00000000	      0.00000000	      0.00000000	      0.00000000	      0.00000000	      0.00000000	      0.00000000
    142.50300000	   -212.00132994	   1410.91189988	     10.92719406	      1.12887631	      0.00000000	     -0.28124199	      0.00002281	    -25.08011070	      0.00007569	      0.00000000	      0.00000000	      0.00000000	      0.00000000	      0.00000000	      0.00000000	      0.00000000	      0.00000000	      0.00000000
    142.50400000	   -233.40191362	   1451.34487472	     22.45114579	      1.12473003	      0.00000000	     -0.28186595	      0.00002294	    -25.89460895	      0.00007740	      0.00000000	      0.00000000	      0.00000000	      0.00000000	      0.00000000	      0.00000000	      0.00000000	      0.00000000	      0.00000000
    142.50500000	   -251.33039464	   1488.85518083	     30.98166642	      1.12041077	      0.00000000	     -0.28252362	      0.00002297	    -24.42827577	      0.00007989	      0.00000000	      0.00000000	      0.00000000	      0.00000000	      0.00000000	      0.00000000	      0.00000000	      0.00000000	      0.00000000
    142.50600000	   -264.77657965	   1523.29159967	     36.57523755	      1.11583040	      0.00000000	     -0.28321287	      0.00002293	    -20.90474554	      0.00008308	      0.00000000	      0.00000000	      0.00000000	      0.00000000	      0.00000000	      0.00000000	      0.00000000	      0.00000000	      0.00000000
    142.50700000	   -273.07838460	   1554.63834939	     39.48807162	      1.11090569	      0.00000000	     -0.28392855	      0.00002283	    -15.73550231	      0.00008681	      0.00000000	      0.00000000	      0.00000000	      0.00000000	      0.00000000	      0.00000000	      0.00000000	      0.00000000	      0.00000000
    142.50800000	   -275.97228327	   1582.99753246	     40.15115248	      1.10556836	      0.00000000	     -0.28466280	      0.00002271	     -9.48261403	      0.00009082	      0.00000000	      0.00000000	      0.00000000	      0.00000000	      0.00000000	      0.00000000	      0.00000000	      0.00000000	      0.00000000
    142.50900000	   -273.61102768	   1608.56158590	     39.13330183	      1.09977437	      0.00000000	     -0.28540579	      0.00002255	     -2.80618029	      0.00009482	      0.00000000	      0.00000000	      0.00000000	      0.00000000	      0.00000000	      0.00000000	      0.00000000	      0.00000000	      0.00000000
    142.51000000	   -266.54669225	   1631.58038033	     37.09554132	      1.09351140	      0.00000000	     -0.28614645	      0.00002237	      3.59834207	      0.00009849	      0.00000000	      0.00000000	      0.00000000	      0.00000000	      0.00000000	      0.00000000	      0.00000000	      0.00000000	      0.00000000
    142.51100000	   -255.68001897	   1652.32839239	     34.74036821	      1.08680346	      0.00000000	     -0.28687325	      0.00002217	      9.06668193	      0.00010154	      0.00000000	      0.00000000	      0.00000000	      0.00000000	      0.00000000	      0.00000000	      0.00000000	      0.00000000	      0.00000000
    142.51200000	   -242.18007546	   1671.07687463	     32.75957433	      1.07971204	      0.00000000	     -0.28757463	      0.00002197	     13.02953682	      0.00010375	      0.00000000	      0.00000000	      0.00000000	      0.00000000	      0.00000000	      0.00000000	      0.00000000	      0.00000000	      0.00000000
    142.51300000	   -227.38105145	   1688.07419069	     31.78409295	      1.07233298	      0.00000000	     -0.28823923	      0.00002177	     15.06732253	      0.00010503	      0.00000000	      0.00000000	      0.00000000	      0.00000000	      0.00000000	      0.00000000	      0.00000000	      0.00000000	      0.00000000
    142.51400000	   -212.66522339	   1703.53523719	     32.33905788	      1.06478909	      0.00000000	     -0.28885591	      0.00002162	     14.95061279	      0.00010535	      0.00000000	      0.00000000	      0.00000000	      0.00000000	      0.00000000	      0.00000000	      0.00000000	      0.00000000	      0.00000000
    142.51500000	   -199.34247741	   1717.63907183	     34.80676476	      1.05721912	      0.00000000	     -0.28941377	      0.00002154	     12.66246677	      0.00010484	      0.00000000	      0.00000000	      0.00000000	      0.00000000	      0.00000000	      0.00000000	      0.00000000	      0.00000000	      0.00000000
    142.51600000	   -188.53724073	   1730.53284326	     39.39962668	      1.04976478	      0.00000000	     -0.28990235	      0.00002157	      8.40060492	      0.00010366	      0.00000000	      0.00000000	      0.00000000	      0.00000000	      0.00000000	      0.00000000	      0.00000000	      0.00000000	      0.00000000
    142.51700000	   -181.09322836	   1742.33963388	     46.14463530	      1.04255734	      0.00000000	     -0.29031206	      0.00002175	      2.55929217	      0.00010204	      0.00000000	      0.00000000	      0.00000000	      0.00000000	      0.00000000	      0.00000000	      0.00000000	      0.00000000	      0.00000000
    142.51800000	   -177.50501184	   1753.16767842	     54.88028304	      1.03570618	      0.00000000	     -0.29063491	      0.00002209	     -4.30732870	      0.00010023	      0.00000000	      0.00000000	      0.00000000	      0.00000000	      0.00000000	      0.00000000	      0.00000000	      0.00000000	      0.00000000
    142.51900000	   -177.88302046	   1763.11871976	     65.26627419	      1.02929041	      0.00000000	     -0.29086538	      0.00002261	    -11.53703084	      0.00009844	      0.00000000	      0.00000000	      0.00000000	      0.00000000	      0.00000000	      0.00000000	      0.00000000	      0.00000000	      0.00000000
    142.52000000	   -181.95535806	   1772.29408813	     76.80558649	      1.02335478	      0.00000000	     -0.29100137	      0.00002327	    -18.42167512	      0.00009686	      0.00000000	      0.00000000	      0.00000000	      0.00000000	      0.00000000	      0.00000000	      0.00000000	      0.00000000	      0.00000000
